<?xml version="1.0" encoding="UTF-8"?>
<svg id="Layer_2" data-name="Layer 2" xmlns="http://www.w3.org/2000/svg" viewBox="0 0 96.65 96.65">
  <defs>
    <style>
      .cls-1 {
        fill: #231f20;
      }

      .cls-2 {
        stroke: #fff;
        stroke-width: 1.3px;
      }

      .cls-2, .cls-3 {
        fill: #fff;
        stroke-miterlimit: 10;
      }

      .cls-3 {
        stroke: #231f20;
        stroke-width: 4px;
      }
    </style>
  </defs>
  <g id="Layer_5" data-name="Layer 5">
    <circle class="cls-3" cx="48.33" cy="48.33" r="46.33"/>
    <g>
      <g>
        <path class="cls-1" d="M77.15,30.82c-.42,4.58,1.08,9.49,4.28,13.23,3.16,3.76,8.01,6.3,13.23,6.68v-4.8c-3.96.41-8.22-.82-11.53-3.58-3.32-2.73-5.59-6.93-5.98-11.53Z"/>
        <path class="cls-1" d="M19.51,65.84c.42-4.58-1.08-9.49-4.28-13.23-3.16-3.76-8.01-6.3-13.23-6.68v4.8c3.96-.41,8.22.82,11.53,3.58,3.32,2.73,5.59,6.93,5.98,11.53Z"/>
      </g>
      <g>
        <path class="cls-1" d="M82.04,47.58c-2.65,3.76-3.81,8.75-2.91,13.6.86,4.84,3.79,9.46,8.12,12.4l2.4-4.16c-3.64-1.62-6.71-4.82-8.2-8.86-1.51-4.02-1.37-8.8.59-12.97Z"/>
        <path class="cls-1" d="M14.61,49.08c2.65-3.76,3.81-8.75,2.91-13.6-.86-4.84-3.79-9.46-8.12-12.4l-2.4,4.16c3.64,1.62,6.71,4.82,8.2,8.86,1.51,4.02,1.37,8.8-.59,12.97Z"/>
      </g>
      <g>
        <path class="cls-1" d="M77.9,64.53c-4.18,1.93-7.68,5.68-9.32,10.32-1.68,4.62-1.45,10.08.83,14.8l4.16-2.4c-2.34-3.22-3.4-7.53-2.67-11.77.7-4.23,3.21-8.31,7-10.94Z"/>
        <path class="cls-1" d="M18.76,32.12c4.18-1.93,7.68-5.68,9.32-10.32,1.68-4.62,1.45-10.08-.83-14.8l-4.16,2.4c2.34,3.22,3.4,7.53,2.67,11.77-.7,4.23-3.21,8.31-7,10.94Z"/>
      </g>
      <g>
        <path class="cls-1" d="M65.83,77.15c-4.58-.42-9.49,1.08-13.23,4.28-3.76,3.16-6.3,8.01-6.68,13.23h4.8c-.41-3.96.82-8.22,3.58-11.53,2.73-3.32,6.93-5.59,11.53-5.98Z"/>
        <path class="cls-1" d="M30.82,19.51c4.58.42,9.49-1.08,13.23-4.28,3.76-3.16,6.3-8.01,6.68-13.23h-4.8c.41,3.96-.82,8.22-3.58,11.53-2.73,3.32-6.93,5.59-11.53,5.98Z"/>
      </g>
      <g>
        <path class="cls-1" d="M49.08,82.04c-3.76-2.65-8.75-3.81-13.6-2.91-4.84.86-9.46,3.79-12.4,8.12l4.16,2.4c1.62-3.64,4.82-6.71,8.86-8.2,4.02-1.51,8.8-1.37,12.97.59Z"/>
        <path class="cls-1" d="M47.58,14.61c3.76,2.65,8.75,3.81,13.6,2.91,4.84-.86,9.46-3.79,12.4-8.12l-4.16-2.4c-1.62,3.64-4.82,6.71-8.86,8.2-4.02,1.51-8.8,1.37-12.97-.59Z"/>
      </g>
      <g>
        <path class="cls-1" d="M32.12,77.9c-1.93-4.18-5.68-7.68-10.32-9.32-4.62-1.68-10.08-1.45-14.8.83l2.4,4.16c3.22-2.34,7.53-3.4,11.77-2.67,4.23.7,8.31,3.21,10.94,7Z"/>
        <path class="cls-1" d="M64.53,18.76c1.93,4.18,5.68,7.68,10.32,9.32,4.62,1.68,10.08,1.45,14.8-.83l-2.4-4.16c-3.22,2.34-7.53,3.4-11.77,2.67-4.23-.7-8.31-3.21-10.94-7Z"/>
      </g>
    </g>
    <path class="cls-1" d="M49.92,42l.63,1.48h2.62l.6,4.11h.49l-.38.65,1.05,1.82c-.68.59-1.06,1.23-1.22,1.54l-.75,1.49h-1.22s-1.32,1.56-1.32,1.56h-3.68s-.63-1.48-.63-1.48h-2.62l-.6-4.11h-.49l.38-.65-1.05-1.82c.68-.59,1.06-1.23,1.21-1.54l.75-1.49h1.22s1.32-1.56,1.32-1.56h3.68M48.33,19.57c-4.27,10.57-5.85,18.98-5.74,19,0,0,0,0,0,0-.27,0-6.6-4.34-9.19-13.08,2.21,8.94,4.89,17.31,5.08,17.31,0,0,0,0,0,0,.01.02-.06.03-.23.03-1.33,0-8.19-.92-14.28-6.81,6.29,6.41,12.76,12.4,13.02,12.4,0,0,0,0,0,0,0,0,0,0,0,0,.06,0-2.83,1.68-7.94,1.68-2.61,0-5.81-.44-9.49-1.77,10.21,4.13,18.4,5.74,18.96,5.74.02,0,.03,0,.03,0,0,0,0,0,0,0,.19,0-4.15,6.55-13.07,9.2,9.03-2.23,17.49-4.95,17.3-5.09,0,0,0,0,0,0,.17,0-.23,7.74-6.78,14.5,6.52-6.4,12.61-12.99,12.39-13.03,0,0,0,0,0,0,.05,0,3.82,6.63-.08,17.44,4.27-10.57,5.85-18.98,5.74-19,0,0,0,0,0,0,.27,0,6.6,4.34,9.19,13.08-2.21-8.94-4.89-17.31-5.08-17.31,0,0,0,0,0,0-.01-.02.06-.03.23-.03,1.33,0,8.19.92,14.28,6.81-6.29-6.41-12.76-12.4-13.02-12.4,0,0,0,0,0,0,0,0,0,0,0,0-.06,0,2.83-1.68,7.94-1.68,2.61,0,5.81.44,9.49,1.77-10.21-4.13-18.4-5.74-18.96-5.74-.02,0-.03,0-.03,0,0,0,0,0,0,0-.19,0,4.15-6.55,13.07-9.2-9.04,2.23-17.49,4.95-17.3,5.09,0,0,0,0,0,0-.17,0,.23-7.74,6.78-14.5-6.52,6.4-12.61,12.99-12.39,13.03,0,0,0,0,0,0-.05,0-3.82-6.63.08-17.44h0Z"/>
    <circle class="cls-2" cx="48.33" cy="48.33" r="6.24"/>
  </g>
</svg>