<?xml version="1.0" encoding="UTF-8"?>
<svg id="Layer_2" data-name="Layer 2" xmlns="http://www.w3.org/2000/svg" viewBox="0 0 98.97 66.25">
  <defs>
    <style>
      .cls-1 {
        stroke-miterlimit: 10;
      }

      .cls-1, .cls-2, .cls-3 {
        fill: #EEEEFE;
      }

      .cls-1, .cls-3 {
        stroke: #EEEEFE;
        stroke-linecap: round;
      }

      .cls-3 {
        stroke-linejoin: round;
        stroke-width: .75px;
      }

      #mark {
        mix-blend-mode: difference;
      }
    </style>
  </defs>
  <g id="mark" data-name="Layer 5">
    <g>
      <path class="cls-3" d="M63.37,52.05c17.78,3.48,31.14-15,23.97-31.11-3.76-9.17-14.22-14.71-23.97-12.64,14.72-6.04,29.58,6.75,29.41,21.88.16,15.12-14.7,27.91-29.41,21.88h0Z"/>
      <path class="cls-1" d="M83.98,27.4c1.56,0,14.49.8,14.49,2.25s-13.04,3.01-14.49,3.01-2.63-1.18-2.63-2.63,1.18-2.63,2.63-2.63Z"/>
      <path class="cls-1" d="M77.85,14.53c1.03-1.18,10.12-10.4,11.22-9.45s-6.3,11.81-7.25,12.9-2.62,1.21-3.71.26-1.21-2.62-.26-3.71Z"/>
      <path class="cls-1" d="M82.06,42.76c1.18,1.03,10.4,10.12,9.45,11.22s-11.81-6.3-12.9-7.25-1.21-2.62-.26-3.71,2.62-1.21,3.71-.26Z"/>
      <circle class="cls-3" cx="67.17" cy="30.88" r="8.43"/>
      <path class="cls-2" d="M61.7,14.88c-3.6,1.89-6.54,4.09-8.39,6.8-3.67,5.42-3.33,12.55.78,17.78,2.05,2.71,4.96,4.96,8.56,6.81-4.03.57-8.42-.73-11.85-3.52-11.95-9.69-4.86-29.95,10.91-27.87h0Z"/>
      <path class="cls-2" d="M61.7,14.88c-10,2.18-17.83,8.12-20.92,17.35-3.58,10.47-.2,17.54,7.71,24.85-2.86-.2-5.66-1.05-8.29-2.53-8.87-4.87-11.27-16.06-7.94-25.18,3.64-11.86,18.13-19.94,29.43-14.5h0Z"/>
      <path class="cls-2" d="M37.4.51c-8.84,8.54-10.51,19.87-8.52,31.04,2.41,11.1,8.22,20.93,19.62,25.52-3.16.99-6.73.79-10.07-.2-17.43-5.55-24.81-28.38-16.78-44.13C24.68,6.65,30.51,1.17,37.4.51h0Z"/>
      <path class="cls-2" d="M37.4.51c-13.24,6.24-20.64,14.32-24.63,28.48-3.52,12.36-3.94,26.69,4.67,37.26-3.72-.8-7.18-3.16-9.83-6.17C-10.89,38.22,6.39-5.2,37.4.51h0Z"/>
    </g>
  </g>
</svg>
