<?xml version="1.0" encoding="UTF-8"?>
<svg id="Layer_2" data-name="Layer 2" xmlns="http://www.w3.org/2000/svg" xmlns:xlink="http://www.w3.org/1999/xlink" viewBox="0 0 116.46 68.3">
  <defs>
    <style>
      .cls-1 {
        fill: none;
      }

      .cls-2 {
        fill: url(#linear-gradient);
        stroke-width: .82px;
      }

      .cls-2, .cls-3 {
        stroke: #8c8d8b;
        stroke-linecap: round;
        stroke-miterlimit: 8.16;
      }

      .cls-3 {
        fill: #8c8d8b;
        stroke-width: .82px;
      }

      .cls-4 {
        clip-path: url(#clippath);
      }
    </style>
    <clipPath id="clippath">
      <path id="t4t-2" data-name="t4t" class="cls-1" d="M1.29,61.27c-.03.26-.07.53-.11.8-.02.07-.02.14-.03.21-.03.22-.06.44-.09.66-.01.09-.03.18-.05.27-.03.2-.06.4-.1.6-.02.11-.04.22-.05.33-.03.18-.06.36-.09.53-.02.12-.05.24-.06.37-.03.15-.05.3-.08.45-.06.34-.13.68-.2,1l-.04.14c-.04.17-.07.33-.11.49-.09.42-.19.82-.28,1.18h1.59c1.18-.76,1.75-.92,3.59-.92h19.92s64.81,0,64.81,0h21.33c1.84,0,2.55-.03,3.71.93h1.52c-.03-.32-.05-.66-.08-.98-.15-1.98-.2-4.12-.25-6.21h-1.93c-.58,1.48-.93,2.44-1.58,3.24-.91,1.2-1.92,1.44-5.52,1.44h-5.95s-2.37-19.47-2.37-19.47c-.24-1.98-.16-2.87,1.28-3.33.86-.27,2.21-.38,4.28-.47h0l-.23-1.57H14.96s-.1.45-.1.45h0l-.26,1.12c5.61.24,6,.68,5.36,3.8l-3.98,19.47h-6.54c-3.6,0-4.18-.28-4.96-1.36-.53-.72-.98-2.04-1.22-3.32l-1.96.12v.04s0,0,0,0ZM76.76,46.43l.49,15.83c.07,2.29-.15,3.12-1.91,3.52h-7.35c-1.49-.43-2.34-1.28-3.47-3.15-3.04-5.15-7.19-12.89-10.28-19.05.14-.14.3-.27.5-.37.8-.42,2.14-.53,4.43-.69h12.04c4.96.36,5.44.48,5.54,3.91h0ZM38.42,65.78c-.94-.22-1.35-.52-1.35-.99.05-.18.09-.36.14-.54.14-.31.37-.67.68-1.09,3.59-5.03,8.4-11.55,12.09-16.71,3.39,6.63,7.56,14.59,9.05,17.51.54.94.62,1.48-.65,1.83,0,0-19.96,0-19.96,0ZM44.54,42.52c2.27.17,3.59.28,4.33.69.16.09.28.19.39.31-3.82,5.43-10.48,14.31-13.03,17.58h-.08c-.23.33-.44.63-.64.91-1.57,2-2.64,2.97-4.07,3.51-.87.2-2.04.26-3.81.26h-5.95s3.56-19.47,3.56-19.47c.36-1.97.72-2.87,2.29-3.33.94-.27,2.33-.38,4.42-.47h12.6,0ZM88.93,65.78c-3.6,0-4.27-.28-5.37-1.36-.17-.17-.35-.36-.53-.58-.09-.43-.13-.95-.16-1.59l-.83-15.83c-.18-3.36.29-3.55,5.07-3.9,3.13.13,4.67.33,5.48,1.03.64.54.81,1.4.95,2.76l1.95,19.47h-6.55Z"/>
    </clipPath>
    <linearGradient id="linear-gradient" x1="58.23" y1="69.36" x2="58.23" y2="40.95" gradientUnits="userSpaceOnUse">
      <stop offset="0" stop-color="#8c8d8b" stop-opacity=".1"/>
      <stop offset="1" stop-color="#8c8d8b"/>
    </linearGradient>
  </defs>
  <g id="Layer_1-2" data-name="Layer 1">
    <g>
      <path id="t4t" class="cls-3" d="M7.05,10.76v.06s1.76.18,1.76.18c.52-1.89,1.23-3.82,1.88-4.88.94-1.59,1.53-2,4.76-2h5.88v28.62c0,4.59-.47,5.23-6.06,5.58v1.65h0v.66s88.49,0,88.49,0v-2.31h0c-2.05-.13-3.39-.29-4.28-.69-1.47-.67-1.66-1.98-1.66-4.89V4.11h5.35c3.23,0,4.18.35,5.17,2.11.71,1.18,1.18,2.59,1.94,4.76h1.76c-.3-3.07-.6-6.22-.79-9.13-.03-.48-.07-.98-.09-1.44h-1.35c-.88,1.41-1.53,1.35-3.17,1.36h-19.04s-57.85,0-57.85,0H11.97c-1.64,0-2.11-.24-2.99-1.35h-1.41c0,.53,0,1.12-.02,1.74,0,.24,0,.47-.02.73v.2c-.02.47-.03.96-.06,1.47,0,.22-.02.44-.03.66-.02.18-.02.36-.03.54,0,.25-.02.51-.04.78-.02.16-.02.32-.03.48-.02.29-.04.59-.06.88,0,.13-.02.27-.02.4-.02.33-.05.65-.07.97,0,.11-.02.2-.02.31-.03.41-.07.8-.1,1.18h0ZM76.43,32.56c0,5.04-.47,5.21-5.35,5.74h-11.87c-2.25-.24-3.57-.41-4.33-1.02-.19-.15-.33-.33-.47-.54,3.32-9.06,7.52-20.44,10.44-28.01,1.04-2.75,1.83-3.99,3.17-4.63h6.6c1.59.6,1.81,1.81,1.81,5.18v23.27h0ZM59.4,4.11c1.13.51,1.04,1.3.52,2.68-1.47,4.29-5.75,15.99-9.46,25.74-3.11-7.58-6.99-17.16-9.75-24.56-.24-.62-.41-1.15-.5-1.6-.02-.27-.04-.53-.07-.8.05-.7.46-1.14,1.32-1.46,0,0,17.93,0,17.93,0ZM44.8,38.31h-12.43c-2.05-.13-3.39-.29-4.28-.69-1.47-.67-1.66-1.99-1.66-4.89V4.11h5.35c1.59,0,2.63.09,3.39.38,1.22.79,2.06,2.22,3.25,5.16.15.42.3.86.47,1.34h.07c1.97,4.81,7.34,17.85,10.56,25.84-.11.17-.24.33-.41.46-.76.6-2.07.78-4.33,1.02h0ZM86.85,4.11h5.88v28.62c0,2.01-.09,3.26-.66,4.06-.73,1.03-2.23,1.32-5.3,1.52-4.73-.52-5.2-.79-5.2-5.74V9.3c0-.93.02-1.7.07-2.33.15-.33.3-.61.45-.86.94-1.59,1.53-2,4.76-2h0Z"/>
      <g class="cls-4">
        <rect class="cls-2" y="40.95" width="116.46" height="28.41"/>
      </g>
    </g>
  </g>
</svg>