<?xml version="1.0" encoding="UTF-8"?>
<svg id="Layer_2" xmlns="http://www.w3.org/2000/svg" version="1.1" viewBox="0 0 105.9 41">
  <!-- Generator: Adobe Illustrator 29.4.0, SVG Export Plug-In . SVG Version: 2.1.0 Build 152)  -->
  <defs>
    <style>
      .st0 {
        fill: #8c8d8b;
        stroke: #8c8d8b;
        stroke-linecap: round;
        stroke-miterlimit: 8.2;
        stroke-width: .8px;
      }
    </style>
  </defs>
  <g id="Layer_1-2">
    <path id="t4t" class="st0" d="M105.4,10.8h0c0-.4,0-.8,0-1.2,0-.1,0-.2,0-.3,0-.3,0-.6,0-1,0-.1,0-.3,0-.4,0-.3,0-.6,0-.9,0-.2,0-.3,0-.5,0-.3,0-.5,0-.8,0-.2,0-.4,0-.5,0-.2,0-.4,0-.7,0-.5,0-1,0-1.5v-.2c0-.3,0-.5,0-.7,0-.6,0-1.2,0-1.7h-1.4c-.9,1.1-1.4,1.4-3,1.4h-17.8s-57.8,0-57.8,0H5.8c-1.6,0-2.3,0-3.2-1.4h-1.3c0,.5,0,1,0,1.4-.2,2.9-.5,6.1-.8,9.1h1.8c.8-2.2,1.2-3.6,1.9-4.8,1-1.8,1.9-2.1,5.2-2.1h5.3v28.6c0,2.9-.2,4.2-1.7,4.9-.9.4-2.2.6-4.3.7h0v2.3s88.5,0,88.5,0v-.7h0v-1.7c-5.6-.3-6.1-1-6.1-5.6V4.1h5.9c3.2,0,3.8.4,4.8,2,.7,1.1,1.4,3,1.9,4.9l1.8-.2h0c0,0,0,0,0,0ZM36,32.6h0V9.3c0-3.4.2-4.6,1.8-5.2h6.6c1.3.6,2.1,1.9,3.2,4.6,2.9,7.6,7.1,18.9,10.4,28-.1.2-.3.4-.5.5-.8.6-2.1.8-4.3,1h-11.9c-4.9-.5-5.3-.7-5.3-5.7h0ZM53,4.1h17.9c.9.3,1.3.8,1.3,1.5,0,.3,0,.5,0,.8,0,.4-.3,1-.5,1.6-2.8,7.4-6.6,17-9.8,24.6-3.7-9.8-8-21.4-9.5-25.7-.5-1.4-.6-2.2.5-2.7h0ZM67.7,38.3h0c-2.3-.2-3.6-.4-4.3-1-.2-.1-.3-.3-.4-.5,3.2-8,8.6-21,10.6-25.8h0c.2-.5.3-.9.5-1.3,1.2-2.9,2-4.4,3.3-5.2.8-.3,1.8-.4,3.4-.4h5.4v28.6c0,2.9-.2,4.2-1.7,4.9-.9.4-2.2.6-4.3.7h-12.4s0,0,0,0ZM25.6,4.1c3.2,0,3.8.4,4.8,2,.1.3.3.5.4.9,0,.6,0,1.4,0,2.3v23.3c0,5-.5,5.2-5.2,5.7-3.1-.2-4.6-.5-5.3-1.5-.6-.8-.7-2.1-.7-4.1V4.1h5.9Z"/>
  </g>
</svg>