<?xml version="1.0" encoding="UTF-8"?>
<svg id="Layer_2" data-name="Layer 2" xmlns="http://www.w3.org/2000/svg" viewBox="0 0 105.86 41.03">
  <defs>
    <style>
      .cls-1 {
        fill: #8c8d8b;
        stroke: #8c8d8b;
        stroke-linecap: round;
        stroke-miterlimit: 8.16;
        stroke-width: .82px;
      }
    </style>
  </defs>
  <g id="Layer_1-2" data-name="Layer 1">
    <path id="t4t" class="cls-1" d="M.41,10.76v.06s1.76.18,1.76.18c.52-1.89,1.23-3.82,1.88-4.88.94-1.59,1.53-2,4.76-2h5.88v28.62c0,4.59-.47,5.23-6.06,5.58v1.65h0v.66s88.49,0,88.49,0v-2.31h0c-2.05-.13-3.39-.29-4.28-.69-1.47-.67-1.66-1.98-1.66-4.89V4.11h5.35c3.23,0,4.18.35,5.17,2.11.71,1.18,1.18,2.59,1.94,4.76h1.76c-.3-3.07-.6-6.22-.79-9.13-.03-.48-.07-.98-.09-1.44h-1.35c-.88,1.41-1.53,1.35-3.17,1.36h-19.04s-57.85,0-57.85,0H5.34c-1.64,0-2.11-.24-2.99-1.35H.93c0,.53,0,1.12-.02,1.74,0,.24,0,.47-.02.73v.2c-.02.47-.03.96-.06,1.47,0,.22-.02.44-.03.66-.02.18-.02.36-.03.54,0,.25-.02.51-.04.78-.02.16-.02.32-.03.48-.02.29-.04.59-.06.88,0,.13-.02.27-.02.4-.02.33-.05.65-.07.97,0,.11-.02.2-.02.31-.03.41-.07.8-.1,1.18h0ZM69.8,32.56c0,5.04-.47,5.21-5.35,5.74h-11.87c-2.25-.24-3.57-.41-4.33-1.02-.19-.15-.33-.33-.47-.54,3.32-9.06,7.52-20.44,10.44-28.01,1.04-2.75,1.83-3.99,3.17-4.63h6.6c1.59.6,1.81,1.81,1.81,5.18v23.27h0ZM52.77,4.11c1.13.51,1.04,1.3.52,2.68-1.47,4.29-5.75,15.99-9.46,25.74-3.11-7.58-6.99-17.16-9.75-24.56-.24-.62-.41-1.15-.5-1.6-.02-.27-.04-.53-.07-.8.05-.7.46-1.14,1.32-1.46,0,0,17.93,0,17.93,0ZM38.17,38.31h-12.43c-2.05-.13-3.39-.29-4.28-.69-1.47-.67-1.66-1.99-1.66-4.89V4.11h5.35c1.59,0,2.63.09,3.39.38,1.22.79,2.06,2.22,3.25,5.16.15.42.3.86.47,1.34h.07c1.97,4.81,7.34,17.85,10.56,25.84-.11.17-.24.33-.41.46-.76.6-2.07.78-4.33,1.02h0ZM80.21,4.11h5.88v28.62c0,2.01-.09,3.26-.66,4.06-.73,1.03-2.23,1.32-5.3,1.52-4.73-.52-5.2-.79-5.2-5.74V9.3c0-.93.02-1.7.07-2.33.15-.33.3-.61.45-.86.94-1.59,1.53-2,4.76-2h0Z"/>
  </g>
</svg>