<?xml version="1.0" encoding="UTF-8"?>
<svg id="Layer_1" data-name="Layer 1" xmlns="http://www.w3.org/2000/svg" viewBox="0 0 128.67 49.27" width="105px">
  <defs>
    <style>
      .cls-1 {
        fill: #231f20;
        stroke-miterlimit: 10;
      }

      .cls-1, .cls-2, .cls-3 {
        fill: #dce0df;
      }

      .cls-1, .cls-3 {
        stroke: #dce0df;
        stroke-linecap: round;
      }

      .cls-3 {
        stroke-linejoin: round;
        stroke-width: .75px;
      }

      #t4t {
        mix-blend-mode: difference;
      }
    </style>
  </defs>
  <path class="cls-1" id="t4t" d="M128.66,12.68c-.04-.47-.08-.95-.12-1.45,0-.13-.02-.25-.03-.38-.03-.39-.06-.79-.09-1.19-.01-.16-.02-.33-.03-.49-.02-.36-.05-.72-.07-1.08-.01-.2-.02-.39-.04-.59-.02-.32-.04-.64-.05-.95-.01-.22-.02-.44-.04-.66-.01-.27-.03-.54-.04-.81-.03-.62-.05-1.22-.07-1.8,0-.08,0-.17,0-.25-.01-.31-.02-.6-.02-.89-.02-.76-.03-1.48-.03-2.13h-1.73c-1.08,1.37-1.66,1.66-3.67,1.66h-21.79s-70.89,0-70.89,0H6.62C4.61,1.66,3.82,1.73,2.74,0h-1.66c-.03.57-.07,1.18-.11,1.77-.23,3.57-.6,7.43-.97,11.19h2.16c.94-2.66,1.51-4.39,2.38-5.83,1.22-2.16,2.38-2.59,6.34-2.59h6.55v35.07c0,3.56-.23,5.17-2.03,5.99-1.08.49-2.73.69-5.24.85h0v2.83h108.44v-.81h0s0,0,0,0v-2.02c-6.84-.43-7.42-1.22-7.42-6.84V4.54h7.2c3.96,0,4.68.5,5.83,2.45.79,1.3,1.66,3.67,2.3,5.98l2.16-.22s0-.05,0-.07ZM43.63,39.41V10.89c0-4.13.27-5.62,2.22-6.35h8.09c1.64.78,2.6,2.3,3.88,5.67,3.57,9.27,8.72,23.22,12.79,34.32-.16.26-.34.48-.57.66-.93.75-2.54.96-5.3,1.25h-14.55c-5.98-.65-6.55-.86-6.55-7.04ZM86.48,4.54c1.06.39,1.56.93,1.62,1.79-.03.33-.05.65-.08.98-.11.55-.32,1.2-.61,1.96-3.38,9.07-8.14,20.81-11.95,30.1-4.54-11.95-9.79-26.28-11.59-31.54-.64-1.7-.75-2.67.64-3.29h21.97ZM82.41,46.45c-2.76-.3-4.37-.51-5.3-1.25-.2-.16-.36-.35-.5-.56,3.95-9.79,10.53-25.78,12.94-31.67h.09s0,0,0,0h0c.21-.59.4-1.13.58-1.64,1.45-3.6,2.48-5.35,3.98-6.32.93-.36,2.2-.47,4.15-.47h6.55v35.07c0,3.55-.23,5.17-2.03,5.99-1.08.49-2.73.69-5.24.85h0s0,0,0,0h0s-15.23,0-15.23,0ZM30.89,4.54c3.96,0,4.68.5,5.83,2.45.18.3.37.65.55,1.05.07.78.09,1.72.09,2.86v28.52c0,6.06-.57,6.39-6.37,7.03-3.77-.24-5.61-.6-6.5-1.86-.7-.98-.81-2.52-.81-4.98V4.54h7.2Z"/>
</svg>